<svg xmlns="http://www.w3.org/2000/svg" width="22" height="25"><path data-name="Фигура 1" d="M1293.55 12762.8a.979.979 0 0 1 1.15-.7 9.406 9.406 0 0 1 7.03 11.4.979.979 0 0 1-1.15.7 1.052 1.052 0 0 1-.71-1.2 7.555 7.555 0 0 0-5.62-9.1.892.892 0 0 1-.7-1.1Zm-.2 4.8a3.727 3.727 0 0 1 2.81 4.5 1.045 1.045 0 0 0 .7 1.2 1 1 0 0 0 1.16-.7 5.727 5.727 0 0 0-4.22-6.9 1 1 0 0 0-1.16.7 1.052 1.052 0 0 0 .71 1.2Zm6.01 11.8a2.867 2.867 0 0 1-.99 4l-1.08.8c-9.38 5.3-23.38-17.3-14.35-23.1l1.29-.7a3.027 3.027 0 0 1 4.01 1c.02 0 1.2 2.7 1.2 2.7a2.9 2.9 0 0 1-.98 3.9l-1.4 1a11.733 11.733 0 0 0 4.86 7.9l1.63-.7a2.909 2.909 0 0 1 3.98 1s1.81 2.2 1.83 2.2Zm-1.6 1s-1.81-2.2-1.83-2.2a1.162 1.162 0 0 0-1.44-.4c-.03.1-2.27 1.1-2.27 1.1a1.048 1.048 0 0 1-.94-.1 13.97 13.97 0 0 1-6.2-10 .911.911 0 0 1 .36-.9s1.95-1.5 1.98-1.5a1 1 0 0 0 .35-1.4c-.02-.1-1.19-2.7-1.19-2.7a1.237 1.237 0 0 0-1.41-.3l-1.3.7c-6.77 5 5.58 23.7 12.37 19.9l1.09-.7a1.149 1.149 0 0 0 .43-1.5Z" transform="translate(-1280 -12760)" style="fill:#671d1f;fill-rule:evenodd"/></svg>