<svg xmlns="http://www.w3.org/2000/svg" width="22" height="26"><path data-name="Фигура 9" d="M990.716 12782.6a5.833 5.833 0 0 1-9.432 0c-4.17-5.7-6.284-10-6.284-12.7a11 11 0 0 1 22 0c0 2.7-2.115 7-6.284 12.7Zm-4.716-21.2a8.559 8.559 0 0 0-8.614 8.5c0 2.2 2.071 6.2 5.83 11.3a3.407 3.407 0 0 0 4.8.8 3.215 3.215 0 0 0 .763-.8c3.759-5.1 5.83-9.1 5.83-11.3a8.559 8.559 0 0 0-8.609-8.5Zm0 12.8a4.407 4.407 0 0 1-4.376-4.4 4.377 4.377 0 0 1 8.752 0 4.407 4.407 0 0 1-4.376 4.4Zm0-6.5a2.119 2.119 0 0 0-2.188 2.1 2.188 2.188 0 1 0 4.376 0 2.12 2.12 0 0 0-2.188-2.1Z" transform="translate(-975 -12759)" style="fill:#671d1f;fill-rule:evenodd"/></svg>