<svg id="ЛОГО" xmlns="http://www.w3.org/2000/svg" width="312" height="70"><defs><style>.cls-1{fill:#671d1f;fill-rule:evenodd}</style></defs><g id="Группа_2" data-name="Группа 2"><path id="Эллипс_1" data-name="Эллипс 1" class="cls-1" d="M388.864 21.2s-8.314 7.266-8.314 18.518c0 14.046 10.026 24.488 10.026 38.025A26.1 26.1 0 0 1 388.987 87a16.65 16.65 0 0 0 4.768-11.358c0-12.5-10.148-24.062-10.148-37.9 0-6.478 2.108-11.602 5.257-16.542Zm-4.646 40.618H371.38a3.073 3.073 0 0 1-3.057-3.087v-13.46a3.072 3.072 0 0 1 3.057-3.087h9.781v-2.47H371.5a5.53 5.53 0 0 0-5.5 5.556v13.457a5.529 5.529 0 0 0 5.5 5.556h10.4v10.37a5.529 5.529 0 0 0 5.5 5.556h3.791c3.038 0 .244-2.222.244-2.222h-4.157a3.072 3.072 0 0 1-3.057-3.087V61.814Z" transform="translate(-366 -17)"/><path id="Прямоугольник_скругл._углы_1_копия" data-name="Прямоугольник, скругл. углы 1 копия" d="M404.882 17s-8.314 7.266-8.314 18.518c0 14.046 10.026 24.488 10.026 38.026A26.073 26.073 0 0 1 405 82.8a16.654 16.654 0 0 0 4.769-11.359c0-12.5-10.149-24.061-10.149-37.9.004-6.475 2.112-11.599 5.262-16.541Zm-1.1 25.185h12.838a3.072 3.072 0 0 1 3.057 3.087v13.455a3.073 3.073 0 0 1-3.057 3.087h-9.659v2.469h9.539a5.529 5.529 0 0 0 5.5-5.556V45.271a5.53 5.53 0 0 0-5.5-5.556h-10.395v-10.37a5.53 5.53 0 0 0-5.5-5.556h-.489l-.366 2.223h1.1a2.971 2.971 0 0 1 2.935 3.086v13.086Z" transform="translate(-366 -17)" style="fill:#2d3b68;fill-rule:evenodd"/><g id="Группа_1" data-name="Группа 1"><path id="Фигура_3" data-name="Фигура 3" class="cls-1" d="M395.094 31.938a1.613 1.613 0 0 0-1.445-1.338c-.939-.019-1.728 1.711-2.767 1.69a1.338 1.338 0 0 1-1.446-1.338c-.076-.688-.362-2.183-1.65-1.56a1.76 1.76 0 0 0-1.091 1.943 2.02 2.02 0 0 0 .476 1.173c.475.528 1.287.919 1.578 1.269a8.311 8.311 0 0 1 .7.9 1.885 1.885 0 0 0 1.367 1.109c1.461.029 1.029-1.241 2.145-2.139.853-.696 2.276-.734 2.133-1.709Z" transform="translate(-366 -17)"/><path id="Фигура_3_копия" data-name="Фигура 3 копия" class="cls-1" d="M395.975 27.123a1.362 1.362 0 0 0-.968-1.349c-.771-.175-1.712 1.119-2.566.925a1.128 1.128 0 0 1-.967-1.349c.052-.581.067-1.862-1.1-1.567a1.479 1.479 0 0 0-1.225 1.418 1.7 1.7 0 0 0 .195 1.048c.3.517.908.978 1.09 1.315a7.2 7.2 0 0 1 .423.857 1.591 1.591 0 0 0 .942 1.146c1.2.271 1.056-.849 2.128-1.4.822-.425 2.002-.216 2.048-1.044Z" transform="translate(-366 -17)"/><path id="Фигура_4" data-name="Фигура 4" class="cls-1" d="M394.7 37.965a1.292 1.292 0 0 0-1.234-1.537c-1.684-.285-1.424 2.414-3.129 2.125s-.972-2.156-2.576-2.428a1.547 1.547 0 0 0-1.5 1.3c-.315 1.871 1.278 1.649 2.3 2.823s.681 1.665 1.819 1.857c1.519.258 1.53-1.676 2.545-2.446.632-.484 1.569-.466 1.775-1.694Z" transform="translate(-366 -17)"/><path id="Фигура_5" data-name="Фигура 5" class="cls-1" d="M395.575 42.783a1.547 1.547 0 0 0-1.314-1.665c-1.691-.168-1.405 2.929-3.021 2.769-1.253-.125-1.472-1.682-2.569-1.791a1.375 1.375 0 0 0-1.615 1.373c-.191 1.93 2.207 1.576 2.923 2.484.477.6.314 1.346 1.754 1.49 1.791.179 1.216-1.83 2.162-2.635.617-.524 1.564-.862 1.68-2.025Z" transform="translate(-366 -17)"/><path id="Фигура_5_копия" data-name="Фигура 5 копия" class="cls-1" d="M396.6 47.747a1.52 1.52 0 0 0-1.464-1.516c-1.732.02-1.163 3.046-2.739 3.044-1.235.009-1.637-1.454-2.716-1.469a1.279 1.279 0 0 0-1.134.472 1.356 1.356 0 0 0-.21.475 2.069 2.069 0 0 0-.043.256c0 .043-.007.085-.009.127s0 .084 0 .125c.007 1.933 2.339 1.309 3.136 2.132.268.271.382.6.608.855a1.135 1.135 0 0 0 .46.319 1.716 1.716 0 0 0 .357.093c.068.009.142.019.221.024.039 0 .08.005.122.007h.131c1.795 0 .945-1.9 1.8-2.788.277-.288.646-.539.947-.861a2.076 2.076 0 0 0 .381-.551 1.644 1.644 0 0 0 .113-.343 1.932 1.932 0 0 0 .032-.193c0-.034.006-.068.008-.1s0-.071 0-.107Z" transform="translate(-366 -17)"/><path id="Фигура_5_копия_2" data-name="Фигура 5 копия 2" class="cls-1" d="M398.021 53.551a1.471 1.471 0 0 0-1.573-1.3c-1.708.169-.892 2.96-2.449 3.1-1.218.117-1.738-1.224-2.8-1.142a1.3 1.3 0 0 0-1.081.542 1.234 1.234 0 0 0-.167.463 1.816 1.816 0 0 0-.021.244v.12c0 .039 0 .079.008.117.17 1.813 2.42 1.025 3.276 1.727.287.232.427.527.673.75a1.139 1.139 0 0 0 .48.26 1.811 1.811 0 0 0 .36.055c.069 0 .142.006.221 0h.121l.13-.009c1.772-.158.773-1.868 1.54-2.773.249-.294.592-.562.863-.89a1.928 1.928 0 0 0 .329-.55 1.5 1.5 0 0 0 .084-.332 1.537 1.537 0 0 0 .014-.184v-.1c0-.032 0-.065-.006-.1Z" transform="translate(-366 -17)"/><path id="Фигура_5_копия_3" data-name="Фигура 5 копия 3" class="cls-1" d="M400.547 58.256a1.468 1.468 0 0 0-1.592-1.269c-1.7.2-.848 2.976-2.4 3.138-1.217.138-1.756-1.193-2.821-1.093a1.289 1.289 0 0 0-1.072.559 1.24 1.24 0 0 0-.16.466 1.69 1.69 0 0 0-.017.245v.12c0 .039.006.079.01.117.2 1.811 2.434.985 3.3 1.672.291.227.435.52.684.737a1.128 1.128 0 0 0 .484.253 1.839 1.839 0 0 0 .361.049h.22l.121-.008.13-.011c1.769-.189.745-1.882 1.5-2.8.244-.3.584-.571.849-.9a1.946 1.946 0 0 0 .321-.556 1.581 1.581 0 0 0 .079-.334 1.549 1.549 0 0 0 .011-.184v-.1c0-.036 0-.066-.007-.1Z" transform="translate(-366 -17)"/><path id="Фигура_5_копия_4" data-name="Фигура 5 копия 4" class="cls-1" d="M402.4 63.8a1.447 1.447 0 0 0 0-.147v-.144a1.338 1.338 0 0 0-.071-.273 1.431 1.431 0 0 0-.3-.474 1.7 1.7 0 0 0-1.034-.509q-.084-.008-.162-.008h-.075c-.024 0-.048 0-.072.007a.931.931 0 0 0-.639.363 3.993 3.993 0 0 0-.489 1.009c-.289.757-.611 1.494-1.386 1.476-1.2 0-1.568-1.424-2.688-1.5a1.4 1.4 0 0 0-1.177.379 1.171 1.171 0 0 0-.239.413 1.463 1.463 0 0 0-.059.226 1.462 1.462 0 0 0-.025.225v.158c0 .05.006.1.012.148a1.254 1.254 0 0 0 .065.264 1.165 1.165 0 0 0 .264.421 2.121 2.121 0 0 0 .882.5 4.351 4.351 0 0 1 1.783.695c.231.261.3.566.494.816a1 1 0 0 0 .413.319 1.68 1.68 0 0 0 .342.1 2.368 2.368 0 0 0 .336.043l.13.009a2.409 2.409 0 0 0 .306 0 1.658 1.658 0 0 0 .256-.042.983.983 0 0 0 .378-.183 1.325 1.325 0 0 0 .4-.659 3.407 3.407 0 0 1 .725-1.619c.3-.267.69-.494 1.015-.792a2.08 2.08 0 0 0 .419-.516 1.667 1.667 0 0 0 .138-.326 2.06 2.06 0 0 0 .059-.284l.011-.1Z" transform="translate(-366 -17)"/><path id="Фигура_5_копия_5" data-name="Фигура 5 копия 5" class="cls-1" d="M403.334 69.821a1.228 1.228 0 0 0 .011-.146v-.145a1.361 1.361 0 0 0-.056-.277 1.423 1.423 0 0 0-.275-.488 1.683 1.683 0 0 0-1-.56 1.593 1.593 0 0 0-.161-.016h-.075a.644.644 0 0 0-.072 0 .919.919 0 0 0-.658.331 3.936 3.936 0 0 0-.542.983c-.329.741-.69 1.462-1.464 1.4-1.2-.064-1.487-1.5-2.6-1.63a1.4 1.4 0 0 0-1.194.32 1.18 1.18 0 0 0-.262.4 1.532 1.532 0 0 0-.07.224 1.483 1.483 0 0 0-.038.224 1.75 1.75 0 0 0-.011.158v.148a1.312 1.312 0 0 0 .05.268 1.185 1.185 0 0 0 .241.434 2.119 2.119 0 0 0 .854.541 4.35 4.35 0 0 1 1.742.784c.216.272.271.581.448.841a.99.99 0 0 0 .4.339 1.727 1.727 0 0 0 .335.119c.066.016.137.031.214.043l.12.018.129.014a2.123 2.123 0 0 0 .306.011 1.459 1.459 0 0 0 .257-.029 1.009 1.009 0 0 0 .388-.162 1.338 1.338 0 0 0 .436-.639 3.423 3.423 0 0 1 .811-1.581c.316-.252.715-.459 1.056-.741a2.075 2.075 0 0 0 .446-.495 1.673 1.673 0 0 0 .209-.5c.008-.032.014-.064.021-.1s.011-.066.015-.1Z" transform="translate(-366 -17)"/><path id="Фигура_5_копия_6" data-name="Фигура 5 копия 6" class="cls-1" d="M403.862 76.128a1.382 1.382 0 0 0 .024-.157c0-.025 0-.051.007-.076s0-.026 0-.038v-.039a1.518 1.518 0 0 0-.028-.3c-.01-.049-.022-.1-.036-.145a1.329 1.329 0 0 0-.049-.14 1.623 1.623 0 0 0-.134-.264 1.579 1.579 0 0 0-.917-.687 1.4 1.4 0 0 0-.155-.03l-.073-.008h-.07a.925.925 0 0 0-.258.034.968.968 0 0 0-.416.258 4.382 4.382 0 0 0-.628.983c-.4.749-.837 1.433-1.581 1.308-1.153-.159-1.294-1.566-2.389-1.856a1.748 1.748 0 0 0-.72-.041 1.113 1.113 0 0 0-.139.033 1.046 1.046 0 0 0-.124.047 1.058 1.058 0 0 0-.21.126 1.109 1.109 0 0 0-.286.332 1.13 1.13 0 0 0-.087.184c-.012.031-.022.062-.032.093s-.017.062-.024.093-.018.088-.024.131a1.074 1.074 0 0 0-.008.125 1.02 1.02 0 0 0 .025.236c.008.037.019.075.031.112s.028.072.044.108a1.415 1.415 0 0 0 .119.207 2.488 2.488 0 0 0 .771.677 4.857 4.857 0 0 1 1.588 1.02 8.519 8.519 0 0 1 .325.9 1.1 1.1 0 0 0 .335.418 1.717 1.717 0 0 0 .306.185c.061.028.128.056.2.083l.113.04.122.039a1.97 1.97 0 0 0 .294.064 1.315 1.315 0 0 0 .253.012.979.979 0 0 0 .215-.037.892.892 0 0 0 .183-.079 1.432 1.432 0 0 0 .508-.617 3.516 3.516 0 0 1 .994-1.51c.34-.217.757-.379 1.123-.632a2.013 2.013 0 0 0 .494-.468 1.725 1.725 0 0 0 .185-.322 1.882 1.882 0 0 0 .071-.187 1.65 1.65 0 0 0 .056-.206Z" transform="translate(-366 -17)"/></g></g><text id="Доктор_Кошкин_В.В._Костоправ_Искусcтво_врачевания_" data-name="Доктор Кошкин В.В. Костоправ | Искусcтво врачевания" x="76.767" y="28.993" style="font-size:22px;font-family:&quot;Source Sans Pro&quot;;font-weight:600;fill:#2d3b68">Доктор Кошкин В.В.<tspan x="76.767" dy="21.994" style="font-size:14px;fill:#671d1f">Костоправ  |   Искусcтво врачевания </tspan></text></svg>